<?xml version="1.0" encoding="utf-8"?>
<svg version="1.1" xmlns:xlink="http://www.w3.org/1999/xlink" width="70px" height="57px" xmlns="http://www.w3.org/2000/svg">
  <g transform="matrix(1 0 0 1 -1827 -1428 )">
    <path d="M 1827 1428  L 1897 1428  L 1897 1485  L 1827 1485  L 1827 1428  " fill-rule="nonzero" fill="rgba(204, 204, 204, 1)" stroke="none" class="fill" />
    <path d="M 1831 1432  L 1893 1432  L 1893 1481  L 1831 1481  L 1831 1432  " fill-rule="nonzero" fill="rgba(255, 255, 255, 1)" stroke="none" class="fill" />
    <path d="M 1867.6750000000002 1445.1  C 1865.2810000000002 1445.1  1863.4 1443.2189999999998  1863.4 1440.8249999999998  C 1863.4 1438.4309999999998  1865.2810000000002 1436.55  1867.6750000000002 1436.55  C 1870.0690000000002 1436.55  1871.95 1438.4309999999998  1871.95 1440.8249999999998  C 1871.95 1443.2189999999998  1870.0690000000002 1445.1  1867.6750000000002 1445.1  " fill-rule="nonzero" fill="rgba(204, 204, 204, 1)" stroke="none" class="fill" />
    <path d="M 1833 1480  L 1833 1454.7  L 1847.75 1443.2  L 1868.4 1457.5257142857142  L 1880.2 1450.1  L 1892 1457.5257142857142  L 1892 1480  L 1833 1480  " fill-rule="nonzero" fill="rgba(22, 155, 213, 1)" stroke="none" class="fill" />
  </g>
</svg>