<?xml version="1.0" encoding="utf-8"?>
<svg version="1.1" xmlns:xlink="http://www.w3.org/1999/xlink" width="113px" height="24px" xmlns="http://www.w3.org/2000/svg">
  <defs>
    <pattern id="BGPattern" patternUnits="userSpaceOnUse" alignment="0 0" imageRepeat="None" />
    <mask fill="white" id="Clip564">
      <path d="M 0 12  C 0 5.279999999999999  24.859999999999996 0  56.5 0  C 88.14 0  113 5.279999999999999  113 12  C 113 18.72  88.14 24  56.5 24  C 24.859999999999996 24  0 18.72  0 12  Z " fill-rule="evenodd" />
    </mask>
  </defs>
  <g transform="matrix(1 0 0 1 -807 -298 )">
    <path d="M 0 12  C 0 5.279999999999999  24.859999999999996 0  56.5 0  C 88.14 0  113 5.279999999999999  113 12  C 113 18.72  88.14 24  56.5 24  C 24.859999999999996 24  0 18.72  0 12  Z " fill-rule="nonzero" fill="rgba(221, 3, 3, 1)" stroke="none" transform="matrix(1 0 0 1 807 298 )" class="fill" />
    <path d="M 0 12  C 0 5.279999999999999  24.859999999999996 0  56.5 0  C 88.14 0  113 5.279999999999999  113 12  C 113 18.72  88.14 24  56.5 24  C 24.859999999999996 24  0 18.72  0 12  Z " stroke-width="2" stroke-dasharray="0" stroke="rgba(121, 121, 121, 1)" fill="none" transform="matrix(1 0 0 1 807 298 )" class="stroke" mask="url(#Clip564)" />
  </g>
</svg>