<?xml version="1.0" encoding="utf-8"?>
<svg version="1.1" xmlns:xlink="http://www.w3.org/1999/xlink" width="40px" height="40px" xmlns="http://www.w3.org/2000/svg">
  <g transform="matrix(1 0 0 1 -66 -111 )">
    <path d="M 66 111  L 106 111  L 106 151  L 66 151  L 66 111  " fill-rule="nonzero" fill="rgba(204, 204, 204, 1)" stroke="none" class="fill" />
    <path d="M 69 114  L 103 114  L 103 148  L 69 148  L 69 114  " fill-rule="nonzero" fill="rgba(255, 255, 255, 1)" stroke="none" class="fill" />
    <path d="M 89.8 123  C 88.11999999999999 123  86.8 121.68  86.8 120  C 86.8 118.32  88.11999999999999 117  89.8 117  C 91.48 117  92.8 118.32  92.8 120  C 92.8 121.68  91.48 123  89.8 123  " fill-rule="nonzero" fill="rgba(204, 204, 204, 1)" stroke="none" class="fill" />
    <path d="M 70 147  L 70 129.4  L 78 121.4  L 89.2 127.8  L 95.6 126.2  L 102 127.8  L 102 147  L 70 147  " fill-rule="nonzero" fill="rgba(22, 155, 213, 1)" stroke="none" class="fill" />
  </g>
</svg>