<?xml version="1.0" encoding="utf-8"?>
<svg version="1.1" xmlns:xlink="http://www.w3.org/1999/xlink" width="71px" height="67px" xmlns="http://www.w3.org/2000/svg">
  <g transform="matrix(1 0 0 1 -213 -376 )">
    <path d="M 213 376  L 284 376  L 284 443  L 213 443  L 213 376  " fill-rule="nonzero" fill="rgba(204, 204, 204, 1)" stroke="none" class="fill" />
    <path d="M 218 381  L 279 381  L 279 438  L 218 438  L 218 381  " fill-rule="nonzero" fill="rgba(255, 255, 255, 1)" stroke="none" class="fill" />
    <path d="M 254.94500000000002 396.1  C 252.13100000000003 396.1  249.92000000000002 393.889  249.92000000000002 391.07500000000005  C 249.92000000000002 388.261  252.13100000000003 386.05  254.94500000000002 386.05  C 257.759 386.05  259.97 388.261  259.97 391.07500000000005  C 259.97 393.889  257.759 396.1  254.94500000000002 396.1  " fill-rule="nonzero" fill="rgba(204, 204, 204, 1)" stroke="none" class="fill" />
    <path d="M 220 437  L 220 407.3  L 234.5 393.8  L 254.8 406.4253521126761  L 266.4 401.9  L 278 406.4253521126761  L 278 437  L 220 437  " fill-rule="nonzero" fill="rgba(22, 155, 213, 1)" stroke="none" class="fill" />
  </g>
</svg>