<?xml version="1.0" encoding="utf-8"?>
<svg version="1.1" xmlns:xlink="http://www.w3.org/1999/xlink" width="93px" height="80px" xmlns="http://www.w3.org/2000/svg">
  <g transform="matrix(1 0 0 1 -104 -607 )">
    <path d="M 104 607  L 197 607  L 197 687  L 104 687  L 104 607  " fill-rule="nonzero" fill="rgba(204, 204, 204, 1)" stroke="none" class="fill" />
    <path d="M 110 613  L 191 613  L 191 681  L 110 681  L 110 613  " fill-rule="nonzero" fill="rgba(255, 255, 255, 1)" stroke="none" class="fill" />
    <path d="M 158.36 631  C 155 631  152.36 628.36  152.36 625  C 152.36 621.64  155 619  158.36 619  C 161.72000000000003 619  164.36 621.64  164.36 625  C 164.36 628.36  161.72000000000003 631  158.36 631  " fill-rule="nonzero" fill="rgba(204, 204, 204, 1)" stroke="none" class="fill" />
    <path d="M 112 679  L 112 643.8  L 131.25 627.8  L 158.2 645.9677419354839  L 173.6 637.4  L 189 645.9677419354839  L 189 679  L 112 679  " fill-rule="nonzero" fill="rgba(22, 155, 213, 1)" stroke="none" class="fill" />
  </g>
</svg>