<?xml version="1.0" encoding="utf-8"?>
<svg version="1.1" xmlns:xlink="http://www.w3.org/1999/xlink" width="55px" height="55px" xmlns="http://www.w3.org/2000/svg">
  <defs>
    <mask fill="white" id="Clip1628">
      <path d="M 87 343  C 85.335 343  84 341.665  84 340  L 84 291  C 84 289.335  85.335 288  87 288  L 136 288  C 137.665 288  139 289.335  139 291  L 139 340  C 139 341.665  137.665 343  136 343  " fill-rule="evenodd" />
    </mask>
  </defs>
  <g transform="matrix(1 0 0 1 -84 -288 )">
    <path d="M 84 288  L 139 288  L 139 343  L 84 343  L 84 288  " fill-rule="nonzero" fill="rgba(204, 204, 204, 1)" stroke="none" class="fill" mask="url(#Clip1628)" />
    <path d="M 88 292  L 135 292  L 135 339  L 88 339  L 88 292  " fill-rule="nonzero" fill="rgba(255, 255, 255, 1)" stroke="none" class="fill" mask="url(#Clip1628)" />
    <path d="M 116.725 304.5  C 114.41499999999999 304.5  112.6 302.685  112.6 300.375  C 112.6 298.065  114.41499999999999 296.25  116.725 296.25  C 119.035 296.25  120.85 298.065  120.85 300.375  C 120.85 302.685  119.035 304.5  116.725 304.5  " fill-rule="nonzero" fill="rgba(204, 204, 204, 1)" stroke="none" class="fill" mask="url(#Clip1628)" />
    <path d="M 90 338  L 90 313.8  L 101 302.8  L 116.4 311.6  L 125.2 309.4  L 134 311.6  L 134 338  L 90 338  " fill-rule="nonzero" fill="rgba(22, 155, 213, 1)" stroke="none" class="fill" mask="url(#Clip1628)" />
  </g>
</svg>