<?xml version="1.0" encoding="utf-8"?>
<svg version="1.1" xmlns:xlink="http://www.w3.org/1999/xlink" width="71px" height="63px" xmlns="http://www.w3.org/2000/svg">
  <g transform="matrix(1 0 0 1 -356 -497 )">
    <path d="M 356 497  L 427 497  L 427 560  L 356 560  L 356 497  " fill-rule="nonzero" fill="rgba(204, 204, 204, 1)" stroke="none" class="fill" />
    <path d="M 360 501  L 423 501  L 423 556  L 360 556  L 360 501  " fill-rule="nonzero" fill="rgba(255, 255, 255, 1)" stroke="none" class="fill" />
    <path d="M 397.645 515.9  C 394.999 515.9  392.92 513.8209999999999  392.92 511.17499999999995  C 392.92 508.529  394.999 506.45  397.645 506.45  C 400.291 506.45  402.37 508.529  402.37 511.17499999999995  C 402.37 513.8209999999999  400.291 515.9  397.645 515.9  " fill-rule="nonzero" fill="rgba(204, 204, 204, 1)" stroke="none" class="fill" />
    <path d="M 362 555  L 362 526.4  L 377 513.4  L 398 527.3154929577465  L 410 521.2  L 422 527.3154929577465  L 422 555  L 362 555  " fill-rule="nonzero" fill="rgba(22, 155, 213, 1)" stroke="none" class="fill" />
  </g>
</svg>