<?xml version="1.0" encoding="utf-8"?>
<svg version="1.1" xmlns:xlink="http://www.w3.org/1999/xlink" width="30px" height="41px" xmlns="http://www.w3.org/2000/svg">
  <defs>
    <pattern id="BGPattern" patternUnits="userSpaceOnUse" alignment="0 0" imageRepeat="None" />
    <mask fill="white" id="Clip297">
      <path d="M 0 41  L 0 0  L 30 0  L 30 41  L 0 41  Z " fill-rule="evenodd" />
    </mask>
  </defs>
  <g transform="matrix(1 0 0 1 -260 -2198 )">
    <path d="M 0 41  L 0 0  L 30 0  L 30 41  L 0 41  Z " fill-rule="nonzero" fill="rgba(242, 242, 242, 1)" stroke="none" transform="matrix(1 0 0 1 260 2198 )" class="fill" />
    <path d="M 0 41  L 0 0  L 30 0  L 30 41  L 0 41  Z " stroke-width="2" stroke-dasharray="0" stroke="rgba(121, 121, 121, 1)" fill="none" transform="matrix(1 0 0 1 260 2198 )" class="stroke" mask="url(#Clip297)" />
    <path d="M 29.596484837170784 0.5514707225332606  L 0.403515162829215 40.44852927746674  M 0.403515162829215 0.5514707225332606  L 29.596484837170784 40.44852927746674  " stroke-width="1" stroke-dasharray="0" stroke="rgba(121, 121, 121, 1)" fill="none" transform="matrix(1 0 0 1 260 2198 )" class="stroke" />
  </g>
</svg>