<?xml version="1.0" encoding="utf-8"?>
<svg version="1.1" xmlns:xlink="http://www.w3.org/1999/xlink" width="42px" height="41px" xmlns="http://www.w3.org/2000/svg">
  <defs>
    <pattern id="BGPattern" patternUnits="userSpaceOnUse" alignment="0 0" imageRepeat="None" />
    <mask fill="white" id="Clip282">
      <path d="M 0 20.5  C 0 9.02  9.239999999999998 0  21 0  C 32.76 0  42 9.02  42 20.5  C 42 31.98  32.76 41  21 41  C 9.239999999999998 41  0 31.98  0 20.5  Z " fill-rule="evenodd" />
    </mask>
  </defs>
  <g transform="matrix(1 0 0 1 -582 -468 )">
    <path d="M 0 20.5  C 0 9.02  9.239999999999998 0  21 0  C 32.76 0  42 9.02  42 20.5  C 42 31.98  32.76 41  21 41  C 9.239999999999998 41  0 31.98  0 20.5  Z " fill-rule="nonzero" fill="rgba(255, 255, 255, 1)" stroke="none" transform="matrix(1 0 0 1 582 468 )" class="fill" />
    <path d="M 0 20.5  C 0 9.02  9.239999999999998 0  21 0  C 32.76 0  42 9.02  42 20.5  C 42 31.98  32.76 41  21 41  C 9.239999999999998 41  0 31.98  0 20.5  Z " stroke-width="2" stroke-dasharray="0" stroke="rgba(121, 121, 121, 1)" fill="none" transform="matrix(1 0 0 1 582 468 )" class="stroke" mask="url(#Clip282)" />
  </g>
</svg>