<?xml version="1.0" encoding="utf-8"?>
<svg version="1.1" xmlns:xlink="http://www.w3.org/1999/xlink" width="64px" height="62px" xmlns="http://www.w3.org/2000/svg">
  <g transform="matrix(1 0 0 1 -92 -245 )">
    <path d="M 92 245  L 156 245  L 156 307  L 92 307  L 92 245  " fill-rule="nonzero" fill="rgba(204, 204, 204, 1)" stroke="none" class="fill" />
    <path d="M 96 249  L 152 249  L 152 303  L 96 303  L 96 249  " fill-rule="nonzero" fill="rgba(255, 255, 255, 1)" stroke="none" class="fill" />
    <path d="M 129.93 263.6  C 127.32600000000001 263.6  125.28 261.55400000000003  125.28 258.95000000000005  C 125.28 256.346  127.32600000000001 254.3  129.93 254.3  C 132.53400000000002 254.3  134.58 256.346  134.58 258.95000000000005  C 134.58 261.55400000000003  132.53400000000002 263.6  129.93 263.6  " fill-rule="nonzero" fill="rgba(204, 204, 204, 1)" stroke="none" class="fill" />
    <path d="M 98 302  L 98 273.95  L 111.25 261.2  L 129.8 272.35625  L 140.4 268.85  L 151 272.35625  L 151 302  L 98 302  " fill-rule="nonzero" fill="rgba(22, 155, 213, 1)" stroke="none" class="fill" />
  </g>
</svg>