<?xml version="1.0" encoding="utf-8"?>
<svg version="1.1" xmlns:xlink="http://www.w3.org/1999/xlink" width="64px" height="62px" xmlns="http://www.w3.org/2000/svg">
  <g transform="matrix(1 0 0 1 -102 -483 )">
    <path d="M 102 483  L 166 483  L 166 545  L 102 545  L 102 483  " fill-rule="nonzero" fill="rgba(204, 204, 204, 1)" stroke="none" class="fill" />
    <path d="M 106 487  L 162 487  L 162 541  L 106 541  L 106 487  " fill-rule="nonzero" fill="rgba(255, 255, 255, 1)" stroke="none" class="fill" />
    <path d="M 139.93 501.6  C 137.326 501.6  135.28 499.55400000000003  135.28 496.95000000000005  C 135.28 494.346  137.326 492.3  139.93 492.3  C 142.53400000000002 492.3  144.58 494.346  144.58 496.95000000000005  C 144.58 499.55400000000003  142.53400000000002 501.6  139.93 501.6  " fill-rule="nonzero" fill="rgba(204, 204, 204, 1)" stroke="none" class="fill" />
    <path d="M 108 540  L 108 511.95  L 121.25 499.2  L 139.8 510.35625  L 150.4 506.85  L 161 510.35625  L 161 540  L 108 540  " fill-rule="nonzero" fill="rgba(22, 155, 213, 1)" stroke="none" class="fill" />
  </g>
</svg>