<?xml version="1.0" encoding="utf-8"?>
<svg version="1.1" xmlns:xlink="http://www.w3.org/1999/xlink" width="40px" height="40px" xmlns="http://www.w3.org/2000/svg">
  <g transform="matrix(1 0 0 1 -93 -161 )">
    <path d="M 93 161  L 133 161  L 133 201  L 93 201  L 93 161  " fill-rule="nonzero" fill="rgba(204, 204, 204, 1)" stroke="none" class="fill" />
    <path d="M 96 164  L 130 164  L 130 198  L 96 198  L 96 164  " fill-rule="nonzero" fill="rgba(255, 255, 255, 1)" stroke="none" class="fill" />
    <path d="M 116.8 173  C 115.11999999999999 173  113.8 171.68  113.8 170  C 113.8 168.32  115.11999999999999 167  116.8 167  C 118.48 167  119.8 168.32  119.8 170  C 119.8 171.68  118.48 173  116.8 173  " fill-rule="nonzero" fill="rgba(204, 204, 204, 1)" stroke="none" class="fill" />
    <path d="M 97 197  L 97 179.4  L 105 171.4  L 116.2 177.8  L 122.6 176.2  L 129 177.8  L 129 197  L 97 197  " fill-rule="nonzero" fill="rgba(22, 155, 213, 1)" stroke="none" class="fill" />
  </g>
</svg>