<?xml version="1.0" encoding="utf-8"?>
<svg version="1.1" xmlns:xlink="http://www.w3.org/1999/xlink" width="78px" height="74px" xmlns="http://www.w3.org/2000/svg">
  <g transform="matrix(1 0 0 1 -92 -392 )">
    <path d="M 92 392  L 170 392  L 170 466  L 92 466  L 92 392  " fill-rule="nonzero" fill="rgba(204, 204, 204, 1)" stroke="none" class="fill" />
    <path d="M 97 397  L 165 397  L 165 461  L 97 461  L 97 397  " fill-rule="nonzero" fill="rgba(255, 255, 255, 1)" stroke="none" class="fill" />
    <path d="M 138.11 414.20000000000005  C 135.002 414.20000000000005  132.56 411.75800000000004  132.56 408.65000000000003  C 132.56 405.54200000000003  135.002 403.1  138.11 403.1  C 141.21800000000002 403.1  143.66 405.54200000000003  143.66 408.65000000000003  C 143.66 411.75800000000004  141.21800000000002 414.20000000000005  138.11 414.20000000000005  " fill-rule="nonzero" fill="rgba(204, 204, 204, 1)" stroke="none" class="fill" />
    <path d="M 99 459  L 99 426  L 115 411  L 137.4 424.84615384615387  L 150.2 420  L 163 424.84615384615387  L 163 459  L 99 459  " fill-rule="nonzero" fill="rgba(22, 155, 213, 1)" stroke="none" class="fill" />
  </g>
</svg>