<?xml version="1.0" encoding="utf-8"?>
<svg version="1.1" xmlns:xlink="http://www.w3.org/1999/xlink" width="31px" height="22px" xmlns="http://www.w3.org/2000/svg">
  <g transform="matrix(1 0 0 1 -96 -365 )">
    <path d="M 96 365  L 127 365  L 127 387  L 96 387  L 96 365  " fill-rule="nonzero" fill="rgba(204, 204, 204, 1)" stroke="none" class="fill" />
    <path d="M 98 367  L 125 367  L 125 385  L 98 385  L 98 367  " fill-rule="nonzero" fill="rgba(255, 255, 255, 1)" stroke="none" class="fill" />
    <path d="M 113.77000000000001 371.6  C 112.846 371.6  112.12 370.874  112.12 369.95000000000005  C 112.12 369.026  112.846 368.3  113.77000000000001 368.3  C 114.694 368.3  115.42 369.026  115.42 369.95000000000005  C 115.42 370.874  114.694 371.6  113.77000000000001 371.6  " fill-rule="nonzero" fill="rgba(204, 204, 204, 1)" stroke="none" class="fill" />
    <path d="M 99 385  L 99 375.65  L 105.5 371.4  L 114.6 377.76129032258063  L 119.8 373.95  L 125 377.76129032258063  L 125 385  L 99 385  " fill-rule="nonzero" fill="rgba(22, 155, 213, 1)" stroke="none" class="fill" />
  </g>
</svg>