<?xml version="1.0" encoding="utf-8"?>
<svg version="1.1" xmlns:xlink="http://www.w3.org/1999/xlink" width="469px" height="164px" xmlns="http://www.w3.org/2000/svg">
  <g transform="matrix(1 0 0 1 -73 -2369 )">
    <path d="M 73 2369  L 542 2369  L 542 2533  L 73 2533  L 73 2369  " fill-rule="nonzero" fill="rgba(204, 204, 204, 1)" stroke="none" class="fill" />
    <path d="M 84 2380  L 531 2380  L 531 2522  L 84 2522  L 84 2380  " fill-rule="nonzero" fill="rgba(255, 255, 255, 1)" stroke="none" class="fill" />
    <path d="M 329.18 2418.2  C 322.292 2418.2  316.88 2412.7879999999996  316.88 2405.8999999999996  C 316.88 2399.0119999999997  322.292 2393.6  329.18 2393.6  C 336.06800000000004 2393.6  341.48 2399.0119999999997  341.48 2405.8999999999996  C 341.48 2412.7879999999996  336.06800000000004 2418.2  329.18 2418.2  " fill-rule="nonzero" fill="rgba(204, 204, 204, 1)" stroke="none" class="fill" />
    <path d="M 88 2518  L 88 2444.3  L 197.75 2410.8  L 351.4 2489.885714285714  L 439.20000000000005 2430.9  L 527 2489.885714285714  L 527 2518  L 88 2518  " fill-rule="nonzero" fill="rgba(22, 155, 213, 1)" stroke="none" class="fill" />
  </g>
</svg>