<?xml version="1.0" encoding="utf-8"?>
<svg version="1.1" xmlns:xlink="http://www.w3.org/1999/xlink" width="469px" height="164px" xmlns="http://www.w3.org/2000/svg">
  <g transform="matrix(1 0 0 1 -89 -1453 )">
    <path d="M 89 1453  L 558 1453  L 558 1617  L 89 1617  L 89 1453  " fill-rule="nonzero" fill="rgba(204, 204, 204, 1)" stroke="none" class="fill" />
    <path d="M 100 1464  L 547 1464  L 547 1606  L 100 1606  L 100 1464  " fill-rule="nonzero" fill="rgba(255, 255, 255, 1)" stroke="none" class="fill" />
    <path d="M 345.18 1502.1999999999998  C 338.292 1502.1999999999998  332.88 1496.7879999999998  332.88 1489.8999999999999  C 332.88 1483.012  338.292 1477.6  345.18 1477.6  C 352.06800000000004 1477.6  357.48 1483.012  357.48 1489.8999999999999  C 357.48 1496.7879999999998  352.06800000000004 1502.1999999999998  345.18 1502.1999999999998  " fill-rule="nonzero" fill="rgba(204, 204, 204, 1)" stroke="none" class="fill" />
    <path d="M 104 1602  L 104 1528.3  L 213.75 1494.8  L 367.4 1573.8857142857144  L 455.20000000000005 1514.9  L 543 1573.8857142857144  L 543 1602  L 104 1602  " fill-rule="nonzero" fill="rgba(22, 155, 213, 1)" stroke="none" class="fill" />
  </g>
</svg>