<?xml version="1.0" encoding="utf-8"?>
<svg version="1.1" xmlns:xlink="http://www.w3.org/1999/xlink" width="15px" height="15px" xmlns="http://www.w3.org/2000/svg">
  <g transform="matrix(1 0 0 1 -353 -352 )">
    <path d="M 353 352  L 368 352  L 368 367  L 353 367  L 353 352  " fill-rule="nonzero" fill="rgba(204, 204, 204, 1)" stroke="none" class="fill" />
    <path d="M 354 353  L 367 353  L 367 366  L 354 366  L 354 353  " fill-rule="nonzero" fill="rgba(255, 255, 255, 1)" stroke="none" class="fill" />
    <path d="M 361.925 356.5  C 361.295 356.5  360.8 356.005  360.8 355.375  C 360.8 354.745  361.295 354.25  361.925 354.25  C 362.555 354.25  363.05 354.745  363.05 355.375  C 363.05 356.005  362.555 356.5  361.925 356.5  " fill-rule="nonzero" fill="rgba(204, 204, 204, 1)" stroke="none" class="fill" />
    <path d="M 355 366  L 355 359.4  L 358 356.4  L 362.2 358.8  L 364.6 358.2  L 367 358.8  L 367 366  L 355 366  " fill-rule="nonzero" fill="rgba(22, 155, 213, 1)" stroke="none" class="fill" />
  </g>
</svg>