<?xml version="1.0" encoding="utf-8"?>
<svg version="1.1" xmlns:xlink="http://www.w3.org/1999/xlink" width="101px" height="56px" xmlns="http://www.w3.org/2000/svg">
  <g transform="matrix(1 0 0 1 -387 -279 )">
    <path d="M 387 279  L 488 279  L 488 335  L 387 335  L 387 279  " fill-rule="nonzero" fill="rgba(204, 204, 204, 1)" stroke="none" class="fill" />
    <path d="M 391 283  L 484 283  L 484 331  L 391 331  L 391 283  " fill-rule="nonzero" fill="rgba(255, 255, 255, 1)" stroke="none" class="fill" />
    <path d="M 443.71999999999997 295.79999999999995  C 441.368 295.79999999999995  439.52 293.95199999999994  439.52 291.59999999999997  C 439.52 289.248  441.368 287.4  443.71999999999997 287.4  C 446.07199999999995 287.4  447.91999999999996 289.248  447.91999999999996 291.59999999999997  C 447.91999999999996 293.95199999999994  446.07199999999995 295.79999999999995  443.71999999999997 295.79999999999995  " fill-rule="nonzero" fill="rgba(204, 204, 204, 1)" stroke="none" class="fill" />
    <path d="M 393 330  L 393 305.25  L 415.5 294  L 447 315.029702970297  L 465 300.75  L 483 315.029702970297  L 483 330  L 393 330  " fill-rule="nonzero" fill="rgba(22, 155, 213, 1)" stroke="none" class="fill" />
  </g>
</svg>