<?xml version="1.0" encoding="utf-8"?>
<svg version="1.1" xmlns:xlink="http://www.w3.org/1999/xlink" width="64px" height="59px" xmlns="http://www.w3.org/2000/svg">
  <defs>
    <pattern id="BGPattern" patternUnits="userSpaceOnUse" alignment="0 0" imageRepeat="None" />
    <mask fill="white" id="Clip1794">
      <path d="M 0 59  L 0 0  L 64 0  L 64 59  L 0 59  Z " fill-rule="evenodd" />
    </mask>
    <mask fill="white" id="Clip1795">
      <path d="M 1 13  L 65 13  L 65 47  L 1 47  Z M 0 0  L 64 0  L 64 59  L 0 59  Z " fill-rule="evenodd" />
    </mask>
  </defs>
  <g transform="matrix(1 0 0 1 -912 -2640 )">
    <path d="M 0 59  L 0 0  L 64 0  L 64 59  L 0 59  Z " fill-rule="nonzero" fill="rgba(242, 242, 242, 1)" stroke="none" transform="matrix(1 0 0 1 912 2640 )" class="fill" />
    <path d="M 0 59  L 0 0  L 64 0  L 64 59  L 0 59  Z " stroke-width="2" stroke-dasharray="0" stroke="rgba(121, 121, 121, 1)" fill="none" transform="matrix(1 0 0 1 912 2640 )" class="stroke" mask="url(#Clip1794)" />
    <path d="M 63.601223738987066 0.3676218656212963  L 0.39877626101293157 58.632378134378705  M 0.39877626101293157 0.3676218656212963  L 63.601223738987066 58.632378134378705  " stroke-width="1" stroke-dasharray="0" stroke="rgba(121, 121, 121, 1)" fill="none" transform="matrix(1 0 0 1 912 2640 )" class="stroke" mask="url(#Clip1795)" />
  </g>
</svg>