<?xml version="1.0" encoding="utf-8"?>
<svg version="1.1" xmlns:xlink="http://www.w3.org/1999/xlink" width="20px" height="20px" xmlns="http://www.w3.org/2000/svg">
  <defs>
    <pattern id="BGPattern" patternUnits="userSpaceOnUse" alignment="0 0" imageRepeat="None" />
    <mask fill="white" id="Clip808">
      <path d="M 0 10  C 0 4.399999999999977  4.400000000000006 0  10 0  C 14.066699600826269 0  17.500565822442354 2.320389057104194  19.076101878836823 5.735670385301148  C 19.67014875083055 7.02340448360053  20 8.466722526004446  20 10  C 20 15.600000000000023  15.599999999999994 20  10 20  C 8.466722526004418 20  7.023404483600501 19.67014875083055  5.7357281442325245 19.076128523935893  C 2.3203890571041654 17.500565822442354  0 14.066699600826269  0 10  Z " fill-rule="evenodd" />
    </mask>
  </defs>
  <g transform="matrix(1 0 0 1 -776 -581 )">
    <path d="M 0 10  C 0 4.399999999999977  4.400000000000006 0  10 0  C 14.066699600826269 0  17.500565822442354 2.320389057104194  19.076101878836823 5.735670385301148  C 19.67014875083055 7.02340448360053  20 8.466722526004446  20 10  C 20 15.600000000000023  15.599999999999994 20  10 20  C 8.466722526004418 20  7.023404483600501 19.67014875083055  5.7357281442325245 19.076128523935893  C 2.3203890571041654 17.500565822442354  0 14.066699600826269  0 10  Z " fill-rule="nonzero" fill="rgba(12, 134, 200, 1)" stroke="none" transform="matrix(1 0 0 1 776 581 )" class="fill" />
    <path d="M 0 10  C 0 4.399999999999977  4.400000000000006 0  10 0  C 14.066699600826269 0  17.500565822442354 2.320389057104194  19.076101878836823 5.735670385301148  C 19.67014875083055 7.02340448360053  20 8.466722526004446  20 10  C 20 15.600000000000023  15.599999999999994 20  10 20  C 8.466722526004418 20  7.023404483600501 19.67014875083055  5.7357281442325245 19.076128523935893  C 2.3203890571041654 17.500565822442354  0 14.066699600826269  0 10  Z " stroke-width="2" stroke-dasharray="0" stroke="rgba(121, 121, 121, 1)" fill="none" transform="matrix(1 0 0 1 776 581 )" class="stroke" mask="url(#Clip808)" />
  </g>
</svg>