<?xml version="1.0" encoding="utf-8"?>
<svg version="1.1" xmlns:xlink="http://www.w3.org/1999/xlink" width="20px" height="20px" xmlns="http://www.w3.org/2000/svg">
  <defs>
    <pattern id="BGPattern" patternUnits="userSpaceOnUse" alignment="0 0" imageRepeat="None" />
    <mask fill="white" id="Clip1148">
      <path d="M 0 10  C 0 4.399999999999977  4.400000000000006 0  10 0  C 14.066699600826269 0  17.500565822442354 2.320389057104194  19.076101878836823 5.735670385301091  C 19.67014875083055 7.02340448360053  20 8.466722526004446  20 10  C 20 15.139090169361452  16.29448054263895 19.26758412307902  11.356558331254774 19.912365157814747  C 10.913690661073758 19.97019366592133  10.460909830638514 20  10 20  C 8.466722526004418 20  7.023404483600501 19.67014875083055  5.7357281442325245 19.07612852393595  C 2.3203890571041654 17.500565822442354  0 14.066699600826269  0 10  Z " fill-rule="evenodd" />
    </mask>
  </defs>
  <g transform="matrix(1 0 0 1 -185 -796 )">
    <path d="M 0 10  C 0 4.399999999999977  4.400000000000006 0  10 0  C 14.066699600826269 0  17.500565822442354 2.320389057104194  19.076101878836823 5.735670385301091  C 19.67014875083055 7.02340448360053  20 8.466722526004446  20 10  C 20 15.139090169361452  16.29448054263895 19.26758412307902  11.356558331254774 19.912365157814747  C 10.913690661073758 19.97019366592133  10.460909830638514 20  10 20  C 8.466722526004418 20  7.023404483600501 19.67014875083055  5.7357281442325245 19.07612852393595  C 2.3203890571041654 17.500565822442354  0 14.066699600826269  0 10  Z " fill-rule="nonzero" fill="rgba(12, 134, 200, 1)" stroke="none" transform="matrix(1 0 0 1 185 796 )" class="fill" />
    <path d="M 0 10  C 0 4.399999999999977  4.400000000000006 0  10 0  C 14.066699600826269 0  17.500565822442354 2.320389057104194  19.076101878836823 5.735670385301091  C 19.67014875083055 7.02340448360053  20 8.466722526004446  20 10  C 20 15.139090169361452  16.29448054263895 19.26758412307902  11.356558331254774 19.912365157814747  C 10.913690661073758 19.97019366592133  10.460909830638514 20  10 20  C 8.466722526004418 20  7.023404483600501 19.67014875083055  5.7357281442325245 19.07612852393595  C 2.3203890571041654 17.500565822442354  0 14.066699600826269  0 10  Z " stroke-width="2" stroke-dasharray="0" stroke="rgba(121, 121, 121, 1)" fill="none" transform="matrix(1 0 0 1 185 796 )" class="stroke" mask="url(#Clip1148)" />
  </g>
</svg>