<?xml version="1.0" encoding="utf-8"?>
<svg version="1.1" xmlns:xlink="http://www.w3.org/1999/xlink" width="64px" height="46px" xmlns="http://www.w3.org/2000/svg">
  <defs>
    <pattern id="BGPattern" patternUnits="userSpaceOnUse" alignment="0 0" imageRepeat="None" />
    <mask fill="white" id="Clip350">
      <path d="M 0 46  L 0 0  L 64 0  L 64 46  L 0 46  Z " fill-rule="evenodd" />
    </mask>
    <mask fill="white" id="Clip351">
      <path d="M 1 7  L 65 7  L 65 41  L 1 41  Z M 0 0  L 64 0  L 64 46  L 0 46  Z " fill-rule="evenodd" />
    </mask>
  </defs>
  <g transform="matrix(1 0 0 1 -410 -302 )">
    <path d="M 0 46  L 0 0  L 64 0  L 64 46  L 0 46  Z " fill-rule="nonzero" fill="rgba(242, 242, 242, 1)" stroke="none" transform="matrix(1 0 0 1 410 302 )" class="fill" />
    <path d="M 0 46  L 0 0  L 64 0  L 64 46  L 0 46  Z " stroke-width="2" stroke-dasharray="0" stroke="rgba(121, 121, 121, 1)" fill="none" transform="matrix(1 0 0 1 410 302 )" class="stroke" mask="url(#Clip350)" />
    <path d="M 63.43511974167463 0.4060076856713567  L 0.5648802583253658 45.593992314328645  M 0.5648802583253658 0.4060076856713567  L 63.43511974167463 45.593992314328645  " stroke-width="1" stroke-dasharray="0" stroke="rgba(121, 121, 121, 1)" fill="none" transform="matrix(1 0 0 1 410 302 )" class="stroke" mask="url(#Clip351)" />
  </g>
</svg>