<?xml version="1.0" encoding="utf-8"?>
<svg version="1.1" xmlns:xlink="http://www.w3.org/1999/xlink" width="78px" height="74px" xmlns="http://www.w3.org/2000/svg">
  <g transform="matrix(1 0 0 1 -96 -460 )">
    <path d="M 96 460  L 174 460  L 174 534  L 96 534  L 96 460  " fill-rule="nonzero" fill="rgba(204, 204, 204, 1)" stroke="none" class="fill" />
    <path d="M 101 465  L 169 465  L 169 529  L 101 529  L 101 465  " fill-rule="nonzero" fill="rgba(255, 255, 255, 1)" stroke="none" class="fill" />
    <path d="M 142.11 482.20000000000005  C 139.002 482.20000000000005  136.56 479.75800000000004  136.56 476.65000000000003  C 136.56 473.54200000000003  139.002 471.1  142.11 471.1  C 145.21800000000002 471.1  147.66 473.54200000000003  147.66 476.65000000000003  C 147.66 479.75800000000004  145.21800000000002 482.20000000000005  142.11 482.20000000000005  " fill-rule="nonzero" fill="rgba(204, 204, 204, 1)" stroke="none" class="fill" />
    <path d="M 103 527  L 103 494  L 119 479  L 141.4 492.84615384615387  L 154.2 488  L 167 492.84615384615387  L 167 527  L 103 527  " fill-rule="nonzero" fill="rgba(22, 155, 213, 1)" stroke="none" class="fill" />
  </g>
</svg>