<?xml version="1.0" encoding="utf-8"?>
<svg version="1.1" xmlns:xlink="http://www.w3.org/1999/xlink" width="26px" height="27px" xmlns="http://www.w3.org/2000/svg">
  <defs>
    <pattern id="BGPattern" patternUnits="userSpaceOnUse" alignment="0 0" imageRepeat="None" />
    <mask fill="white" id="Clip1589">
      <path d="M 0 13.5  C 0 5.940000000000055  5.720000000000027 0  13 0  C 18.218769360344822 0  22.635864261217193 3.0525296726061697  24.718774041054985 7.566135638503965  C 25.541450262476587 9.348851499245484  26 11.359491258819617  26 13.5  C 26 21.059999999999945  20.279999999999973 27  13 27  C 5.720000000000027 27  0 21.059999999999945  0 13.5  Z " fill-rule="evenodd" />
    </mask>
  </defs>
  <g transform="matrix(1 0 0 1 -1366 -628 )">
    <path d="M 0 13.5  C 0 5.940000000000055  5.720000000000027 0  13 0  C 18.218769360344822 0  22.635864261217193 3.0525296726061697  24.718774041054985 7.566135638503965  C 25.541450262476587 9.348851499245484  26 11.359491258819617  26 13.5  C 26 21.059999999999945  20.279999999999973 27  13 27  C 5.720000000000027 27  0 21.059999999999945  0 13.5  Z " fill-rule="nonzero" fill="rgba(255, 255, 255, 1)" stroke="none" transform="matrix(1 0 0 1 1366 628 )" class="fill" />
    <path d="M 0 13.5  C 0 5.940000000000055  5.720000000000027 0  13 0  C 18.218769360344822 0  22.635864261217193 3.0525296726061697  24.718774041054985 7.566135638503965  C 25.541450262476587 9.348851499245484  26 11.359491258819617  26 13.5  C 26 21.059999999999945  20.279999999999973 27  13 27  C 5.720000000000027 27  0 21.059999999999945  0 13.5  Z " stroke-width="2" stroke-dasharray="0" stroke="rgba(121, 121, 121, 1)" fill="none" transform="matrix(1 0 0 1 1366 628 )" class="stroke" mask="url(#Clip1589)" />
  </g>
</svg>