<?xml version="1.0" encoding="utf-8"?>
<svg version="1.1" xmlns:xlink="http://www.w3.org/1999/xlink" width="26px" height="27px" xmlns="http://www.w3.org/2000/svg">
  <defs>
    <pattern id="BGPattern" patternUnits="userSpaceOnUse" alignment="0 0" imageRepeat="None" />
    <mask fill="white" id="Clip1595">
      <path d="M 0 13.5  C 0 5.9399999999999995  5.719999999999999 0  13 0  C 20.28 0  26 5.9399999999999995  26 13.5  C 26 21.060000000000002  20.28 27  13 27  C 5.719999999999999 27  0 21.060000000000002  0 13.5  Z " fill-rule="evenodd" />
    </mask>
  </defs>
  <g transform="matrix(1 0 0 1 -1366 -509 )">
    <path d="M 0 13.5  C 0 5.9399999999999995  5.719999999999999 0  13 0  C 20.28 0  26 5.9399999999999995  26 13.5  C 26 21.060000000000002  20.28 27  13 27  C 5.719999999999999 27  0 21.060000000000002  0 13.5  Z " fill-rule="nonzero" fill="rgba(255, 255, 255, 1)" stroke="none" transform="matrix(1 0 0 1 1366 509 )" class="fill" />
    <path d="M 0 13.5  C 0 5.9399999999999995  5.719999999999999 0  13 0  C 20.28 0  26 5.9399999999999995  26 13.5  C 26 21.060000000000002  20.28 27  13 27  C 5.719999999999999 27  0 21.060000000000002  0 13.5  Z " stroke-width="2" stroke-dasharray="0" stroke="rgba(121, 121, 121, 1)" fill="none" transform="matrix(1 0 0 1 1366 509 )" class="stroke" mask="url(#Clip1595)" />
  </g>
</svg>