<?xml version="1.0" encoding="utf-8"?>
<svg version="1.1" xmlns:xlink="http://www.w3.org/1999/xlink" width="32px" height="31px" xmlns="http://www.w3.org/2000/svg">
  <defs>
    <pattern id="BGPattern" patternUnits="userSpaceOnUse" alignment="0 0" imageRepeat="None" />
    <mask fill="white" id="Clip507">
      <path d="M 0 15.5  C 0 6.819999999999999  7.039999999999999 0  16 0  C 24.96 0  32 6.819999999999999  32 15.5  C 32 24.18  24.96 31  16 31  C 7.039999999999999 31  0 24.18  0 15.5  Z " fill-rule="evenodd" />
    </mask>
  </defs>
  <g transform="matrix(1 0 0 1 -419 -1913 )">
    <path d="M 0 15.5  C 0 6.819999999999999  7.039999999999999 0  16 0  C 24.96 0  32 6.819999999999999  32 15.5  C 32 24.18  24.96 31  16 31  C 7.039999999999999 31  0 24.18  0 15.5  Z " fill-rule="nonzero" fill="rgba(255, 255, 255, 1)" stroke="none" transform="matrix(1 0 0 1 419 1913 )" class="fill" />
    <path d="M 0 15.5  C 0 6.819999999999999  7.039999999999999 0  16 0  C 24.96 0  32 6.819999999999999  32 15.5  C 32 24.18  24.96 31  16 31  C 7.039999999999999 31  0 24.18  0 15.5  Z " stroke-width="2" stroke-dasharray="0" stroke="rgba(121, 121, 121, 1)" fill="none" transform="matrix(1 0 0 1 419 1913 )" class="stroke" mask="url(#Clip507)" />
  </g>
</svg>