<?xml version="1.0" encoding="utf-8"?>
<svg version="1.1" xmlns:xlink="http://www.w3.org/1999/xlink" width="65px" height="58px" xmlns="http://www.w3.org/2000/svg">
  <defs>
    <mask fill="white" id="Clip616">
      <path d="M 167 489  C 164.225 489  162 486.775  162 484  L 162 436  C 162 433.225  164.225 431  167 431  L 222 431  C 224.775 431  227 433.225  227 436  L 227 484  C 227 486.775  224.775 489  222 489  " fill-rule="evenodd" />
    </mask>
  </defs>
  <g transform="matrix(1 0 0 1 -162 -431 )">
    <path d="M 162 431  L 227 431  L 227 489  L 162 489  L 162 431  " fill-rule="nonzero" fill="rgba(204, 204, 204, 1)" stroke="none" class="fill" mask="url(#Clip616)" />
    <path d="M 166 435  L 223 435  L 223 485  L 166 485  L 166 435  " fill-rule="nonzero" fill="rgba(255, 255, 255, 1)" stroke="none" class="fill" mask="url(#Clip616)" />
    <path d="M 200.15 448.4  C 197.714 448.4  195.8 446.486  195.8 444.04999999999995  C 195.8 441.614  197.714 439.7  200.15 439.7  C 202.586 439.7  204.5 441.614  204.5 444.04999999999995  C 204.5 446.486  202.586 448.4  200.15 448.4  " fill-rule="nonzero" fill="rgba(204, 204, 204, 1)" stroke="none" class="fill" mask="url(#Clip616)" />
    <path d="M 168 484  L 168 458.15  L 181.5 446.4  L 200.4 458.8369230769231  L 211.2 453.45  L 222 458.8369230769231  L 222 484  L 168 484  " fill-rule="nonzero" fill="rgba(22, 155, 213, 1)" stroke="none" class="fill" mask="url(#Clip616)" />
  </g>
</svg>