<?xml version="1.0" encoding="utf-8"?>
<svg version="1.1" xmlns:xlink="http://www.w3.org/1999/xlink" width="66px" height="24px" xmlns="http://www.w3.org/2000/svg">
  <defs>
    <pattern id="BGPattern" patternUnits="userSpaceOnUse" alignment="0 0" imageRepeat="None" />
    <mask fill="white" id="Clip11">
      <path d="M 0 12  C 0 5.279999999999999  14.519999999999998 0  33 0  C 51.480000000000004 0  66 5.279999999999999  66 12  C 66 18.72  51.480000000000004 24  33 24  C 14.519999999999998 24  0 18.72  0 12  Z " fill-rule="evenodd" />
    </mask>
  </defs>
  <g transform="matrix(1 0 0 1 -705 -687 )">
    <path d="M 0 12  C 0 5.279999999999999  14.519999999999998 0  33 0  C 51.480000000000004 0  66 5.279999999999999  66 12  C 66 18.72  51.480000000000004 24  33 24  C 14.519999999999998 24  0 18.72  0 12  Z " fill-rule="nonzero" fill="rgba(221, 3, 3, 1)" stroke="none" transform="matrix(1 0 0 1 705 687 )" class="fill" />
    <path d="M 0 12  C 0 5.279999999999999  14.519999999999998 0  33 0  C 51.480000000000004 0  66 5.279999999999999  66 12  C 66 18.72  51.480000000000004 24  33 24  C 14.519999999999998 24  0 18.72  0 12  Z " stroke-width="2" stroke-dasharray="0" stroke="rgba(121, 121, 121, 1)" fill="none" transform="matrix(1 0 0 1 705 687 )" class="stroke" mask="url(#Clip11)" />
  </g>
</svg>