<?xml version="1.0" encoding="utf-8"?>
<svg version="1.1" xmlns:xlink="http://www.w3.org/1999/xlink" width="96px" height="24px" xmlns="http://www.w3.org/2000/svg">
  <defs>
    <pattern id="BGPattern" patternUnits="userSpaceOnUse" alignment="0 0" imageRepeat="None" />
    <mask fill="white" id="Clip1898">
      <path d="M 0 12  C 0 5.279999999999999  21.119999999999997 0  48 0  C 74.88 0  96 5.279999999999999  96 12  C 96 18.72  74.88 24  48 24  C 21.119999999999997 24  0 18.72  0 12  Z " fill-rule="evenodd" />
    </mask>
  </defs>
  <g transform="matrix(1 0 0 1 -811 -1535 )">
    <path d="M 0 12  C 0 5.279999999999999  21.119999999999997 0  48 0  C 74.88 0  96 5.279999999999999  96 12  C 96 18.72  74.88 24  48 24  C 21.119999999999997 24  0 18.72  0 12  Z " fill-rule="nonzero" fill="rgba(221, 3, 3, 1)" stroke="none" transform="matrix(1 0 0 1 811 1535 )" class="fill" />
    <path d="M 0 12  C 0 5.279999999999999  21.119999999999997 0  48 0  C 74.88 0  96 5.279999999999999  96 12  C 96 18.72  74.88 24  48 24  C 21.119999999999997 24  0 18.72  0 12  Z " stroke-width="2" stroke-dasharray="0" stroke="rgba(121, 121, 121, 1)" fill="none" transform="matrix(1 0 0 1 811 1535 )" class="stroke" mask="url(#Clip1898)" />
  </g>
</svg>