<?xml version="1.0" encoding="utf-8"?>
<svg version="1.1" xmlns:xlink="http://www.w3.org/1999/xlink" width="82px" height="24px" xmlns="http://www.w3.org/2000/svg">
  <defs>
    <pattern id="BGPattern" patternUnits="userSpaceOnUse" alignment="0 0" imageRepeat="None" />
    <mask fill="white" id="Clip980">
      <path d="M 0 12  C 0 5.279999999999999  18.04 0  41 0  C 63.96 0  82 5.279999999999999  82 12  C 82 18.72  63.96 24  41 24  C 18.04 24  0 18.72  0 12  Z " fill-rule="evenodd" />
    </mask>
  </defs>
  <g transform="matrix(1 0 0 1 -931 -1535 )">
    <path d="M 0 12  C 0 5.279999999999999  18.04 0  41 0  C 63.96 0  82 5.279999999999999  82 12  C 82 18.72  63.96 24  41 24  C 18.04 24  0 18.72  0 12  Z " fill-rule="nonzero" fill="rgba(221, 3, 3, 1)" stroke="none" transform="matrix(1 0 0 1 931 1535 )" class="fill" />
    <path d="M 0 12  C 0 5.279999999999999  18.04 0  41 0  C 63.96 0  82 5.279999999999999  82 12  C 82 18.72  63.96 24  41 24  C 18.04 24  0 18.72  0 12  Z " stroke-width="2" stroke-dasharray="0" stroke="rgba(121, 121, 121, 1)" fill="none" transform="matrix(1 0 0 1 931 1535 )" class="stroke" mask="url(#Clip980)" />
  </g>
</svg>