<?xml version="1.0" encoding="utf-8"?>
<svg version="1.1" xmlns:xlink="http://www.w3.org/1999/xlink" width="65px" height="24px" xmlns="http://www.w3.org/2000/svg">
  <defs>
    <pattern id="BGPattern" patternUnits="userSpaceOnUse" alignment="0 0" imageRepeat="None" />
    <mask fill="white" id="Clip1249">
      <path d="M 0 12  C 0 5.279999999999999  14.299999999999999 0  32.5 0  C 50.7 0  65 5.279999999999999  65 12  C 65 18.72  50.7 24  32.5 24  C 14.299999999999999 24  0 18.72  0 12  Z " fill-rule="evenodd" />
    </mask>
  </defs>
  <g transform="matrix(1 0 0 1 -1055 -1545 )">
    <path d="M 0 12  C 0 5.279999999999999  14.299999999999999 0  32.5 0  C 50.7 0  65 5.279999999999999  65 12  C 65 18.72  50.7 24  32.5 24  C 14.299999999999999 24  0 18.72  0 12  Z " fill-rule="nonzero" fill="rgba(221, 3, 3, 1)" stroke="none" transform="matrix(1 0 0 1 1055 1545 )" class="fill" />
    <path d="M 0 12  C 0 5.279999999999999  14.299999999999999 0  32.5 0  C 50.7 0  65 5.279999999999999  65 12  C 65 18.72  50.7 24  32.5 24  C 14.299999999999999 24  0 18.72  0 12  Z " stroke-width="2" stroke-dasharray="0" stroke="rgba(121, 121, 121, 1)" fill="none" transform="matrix(1 0 0 1 1055 1545 )" class="stroke" mask="url(#Clip1249)" />
  </g>
</svg>