<?xml version="1.0" encoding="utf-8"?>
<svg version="1.1" xmlns:xlink="http://www.w3.org/1999/xlink" width="22px" height="22px" xmlns="http://www.w3.org/2000/svg">
  <g transform="matrix(1 0 0 1 -126 -450 )">
    <path d="M 126 450  L 148 450  L 148 472  L 126 472  L 126 450  " fill-rule="nonzero" fill="rgba(204, 204, 204, 1)" stroke="none" class="fill" />
    <path d="M 128 452  L 146 452  L 146 470  L 128 470  L 128 452  " fill-rule="nonzero" fill="rgba(255, 255, 255, 1)" stroke="none" class="fill" />
    <path d="M 139.09 456.6  C 138.166 456.6  137.44 455.874  137.44 454.95000000000005  C 137.44 454.026  138.166 453.3  139.09 453.3  C 140.014 453.3  140.74 454.026  140.74 454.95000000000005  C 140.74 455.874  140.014 456.6  139.09 456.6  " fill-rule="nonzero" fill="rgba(204, 204, 204, 1)" stroke="none" class="fill" />
    <path d="M 129 470  L 129 460.65  L 133.25 456.4  L 139.2 459.8  L 142.6 458.95  L 146 459.8  L 146 470  L 129 470  " fill-rule="nonzero" fill="rgba(22, 155, 213, 1)" stroke="none" class="fill" />
  </g>
</svg>