<?xml version="1.0" encoding="utf-8"?>
<svg version="1.1" xmlns:xlink="http://www.w3.org/1999/xlink" width="49px" height="46px" xmlns="http://www.w3.org/2000/svg">
  <defs>
    <pattern id="BGPattern" patternUnits="userSpaceOnUse" alignment="0 0" imageRepeat="None" />
    <mask fill="white" id="Clip1937">
      <path d="M 0 23  C 0 10.12  10.78 0  24.5 0  C 38.22 0  49 10.12  49 23  C 49 35.88  38.22 46  24.5 46  C 10.78 46  0 35.88  0 23  Z " fill-rule="evenodd" />
    </mask>
  </defs>
  <g transform="matrix(1 0 0 1 -437 -2379 )">
    <path d="M 0 23  C 0 10.12  10.78 0  24.5 0  C 38.22 0  49 10.12  49 23  C 49 35.88  38.22 46  24.5 46  C 10.78 46  0 35.88  0 23  Z " fill-rule="nonzero" fill="rgba(255, 255, 255, 1)" stroke="none" transform="matrix(1 0 0 1 437 2379 )" class="fill" />
    <path d="M 0 23  C 0 10.12  10.78 0  24.5 0  C 38.22 0  49 10.12  49 23  C 49 35.88  38.22 46  24.5 46  C 10.78 46  0 35.88  0 23  Z " stroke-width="2" stroke-dasharray="0" stroke="rgba(121, 121, 121, 1)" fill="none" transform="matrix(1 0 0 1 437 2379 )" class="stroke" mask="url(#Clip1937)" />
  </g>
</svg>