<?xml version="1.0" encoding="utf-8"?>
<svg version="1.1" xmlns:xlink="http://www.w3.org/1999/xlink" width="24px" height="23px" xmlns="http://www.w3.org/2000/svg">
  <defs>
    <pattern id="BGPattern" patternUnits="userSpaceOnUse" alignment="0 0" imageRepeat="None" />
    <mask fill="white" id="Clip3540">
      <path d="M 0 11.5  C 0 5.06  5.279999999999999 0  12 0  C 18.72 0  24 5.06  24 11.5  C 24 17.94  18.72 23  12 23  C 5.279999999999999 23  0 17.94  0 11.5  Z " fill-rule="evenodd" />
    </mask>
  </defs>
  <g transform="matrix(1 0 0 1 -568 -1833 )">
    <path d="M 0 11.5  C 0 5.06  5.279999999999999 0  12 0  C 18.72 0  24 5.06  24 11.5  C 24 17.94  18.72 23  12 23  C 5.279999999999999 23  0 17.94  0 11.5  Z " fill-rule="nonzero" fill="rgba(255, 255, 255, 1)" stroke="none" transform="matrix(1 0 0 1 568 1833 )" class="fill" />
    <path d="M 0 11.5  C 0 5.06  5.279999999999999 0  12 0  C 18.72 0  24 5.06  24 11.5  C 24 17.94  18.72 23  12 23  C 5.279999999999999 23  0 17.94  0 11.5  Z " stroke-width="2" stroke-dasharray="0" stroke="rgba(121, 121, 121, 1)" fill="none" transform="matrix(1 0 0 1 568 1833 )" class="stroke" mask="url(#Clip3540)" />
  </g>
</svg>