<?xml version="1.0" encoding="utf-8"?>
<svg version="1.1" xmlns:xlink="http://www.w3.org/1999/xlink" width="60px" height="60px" xmlns="http://www.w3.org/2000/svg">
  <defs>
    <mask fill="white" id="Clip695">
      <path d="M 827 228  C 824.225 228  822 225.775  822 223  L 822 173  C 822 170.225  824.225 168  827 168  L 877 168  C 879.775 168  882 170.225  882 173  L 882 223  C 882 225.775  879.775 228  877 228  " fill-rule="evenodd" />
    </mask>
  </defs>
  <g transform="matrix(1 0 0 1 -822 -168 )">
    <path d="M 822 168  L 882 168  L 882 228  L 822 228  L 822 168  " fill-rule="nonzero" fill="rgba(204, 204, 204, 1)" stroke="none" class="fill" mask="url(#Clip695)" />
    <path d="M 826 172  L 878 172  L 878 224  L 826 224  L 826 172  " fill-rule="nonzero" fill="rgba(255, 255, 255, 1)" stroke="none" class="fill" mask="url(#Clip695)" />
    <path d="M 857.7 186  C 855.1800000000001 186  853.2 184.02  853.2 181.5  C 853.2 178.98  855.1800000000001 177  857.7 177  C 860.22 177  862.2 178.98  862.2 181.5  C 862.2 184.02  860.22 186  857.7 186  " fill-rule="nonzero" fill="rgba(204, 204, 204, 1)" stroke="none" class="fill" mask="url(#Clip695)" />
    <path d="M 828 223  L 828 196.05  L 840.25 183.8  L 857.4 193.6  L 867.2 191.15  L 877 193.6  L 877 223  L 828 223  " fill-rule="nonzero" fill="rgba(22, 155, 213, 1)" stroke="none" class="fill" mask="url(#Clip695)" />
  </g>
</svg>