<?xml version="1.0" encoding="utf-8"?>
<svg version="1.1" xmlns:xlink="http://www.w3.org/1999/xlink" width="66px" height="29px" xmlns="http://www.w3.org/2000/svg">
  <defs>
    <pattern id="BGPattern" patternUnits="userSpaceOnUse" alignment="0 0" imageRepeat="None" />
    <mask fill="white" id="Clip2944">
      <path d="M 0 14.5  C 0 6.379999999999999  14.519999999999998 0  33 0  C 51.480000000000004 0  66 6.379999999999999  66 14.5  C 66 22.62  51.480000000000004 29  33 29  C 14.519999999999998 29  0 22.62  0 14.5  Z " fill-rule="evenodd" />
    </mask>
  </defs>
  <g transform="matrix(1 0 0 1 -822 -117 )">
    <path d="M 0 14.5  C 0 6.379999999999999  14.519999999999998 0  33 0  C 51.480000000000004 0  66 6.379999999999999  66 14.5  C 66 22.62  51.480000000000004 29  33 29  C 14.519999999999998 29  0 22.62  0 14.5  Z " fill-rule="nonzero" fill="rgba(236, 13, 13, 1)" stroke="none" transform="matrix(1 0 0 1 822 117 )" class="fill" />
    <path d="M 0 14.5  C 0 6.379999999999999  14.519999999999998 0  33 0  C 51.480000000000004 0  66 6.379999999999999  66 14.5  C 66 22.62  51.480000000000004 29  33 29  C 14.519999999999998 29  0 22.62  0 14.5  Z " stroke-width="2" stroke-dasharray="0" stroke="rgba(121, 121, 121, 1)" fill="none" transform="matrix(1 0 0 1 822 117 )" class="stroke" mask="url(#Clip2944)" />
  </g>
</svg>