<?xml version="1.0" encoding="utf-8"?>
<svg version="1.1" xmlns:xlink="http://www.w3.org/1999/xlink" width="69px" height="37px" xmlns="http://www.w3.org/2000/svg">
  <defs>
    <pattern id="BGPattern" patternUnits="userSpaceOnUse" alignment="0 0" imageRepeat="None" />
    <mask fill="white" id="Clip626">
      <path d="M 69 37  L 0 37  C 0 16.279999999999998  15.179999999999998 0  34.5 0  C 53.82 0  69 16.279999999999998  69 37  Z " fill-rule="evenodd" />
    </mask>
  </defs>
  <g transform="matrix(1 0 0 1 -846 -810 )">
    <path d="M 69 37  L 0 37  C 0 16.279999999999998  15.179999999999998 0  34.5 0  C 53.82 0  69 16.279999999999998  69 37  Z " fill-rule="nonzero" fill="rgba(65, 65, 65, 1)" stroke="none" transform="matrix(1 0 0 1 846 810 )" class="fill" />
    <path d="M 69 37  L 0 37  C 0 16.279999999999998  15.179999999999998 0  34.5 0  C 53.82 0  69 16.279999999999998  69 37  Z " stroke-width="2" stroke-dasharray="0" stroke="rgba(121, 121, 121, 0)" fill="none" transform="matrix(1 0 0 1 846 810 )" class="stroke" mask="url(#Clip626)" />
  </g>
</svg>