<?xml version="1.0" encoding="utf-8"?>
<svg version="1.1" xmlns:xlink="http://www.w3.org/1999/xlink" width="60px" height="78px" xmlns="http://www.w3.org/2000/svg">
  <defs>
    <pattern id="BGPattern" patternUnits="userSpaceOnUse" alignment="0 0" imageRepeat="None" />
    <mask fill="white" id="Clip326">
      <path d="M 0 73  L 0 5  C 0 2.1999999999999993  2.1999999999999997 0  5 0  L 55 0  C 57.800000000000004 0  60 2.1999999999999993  60 5  L 60 73  C 60 75.8  57.800000000000004 78  55 78  L 5 78  C 2.1999999999999997 78  0 75.8  0 73  Z " fill-rule="evenodd" />
    </mask>
  </defs>
  <g transform="matrix(1 0 0 1 -478 -1121 )">
    <path d="M 0 73  L 0 5  C 0 2.1999999999999993  2.1999999999999997 0  5 0  L 55 0  C 57.800000000000004 0  60 2.1999999999999993  60 5  L 60 73  C 60 75.8  57.800000000000004 78  55 78  L 5 78  C 2.1999999999999997 78  0 75.8  0 73  Z " fill-rule="nonzero" fill="rgba(255, 255, 255, 1)" stroke="none" transform="matrix(1 0 0 1 478 1121 )" class="fill" />
    <path d="M 0 73  L 0 5  C 0 2.1999999999999993  2.1999999999999997 0  5 0  L 55 0  C 57.800000000000004 0  60 2.1999999999999993  60 5  L 60 73  C 60 75.8  57.800000000000004 78  55 78  L 5 78  C 2.1999999999999997 78  0 75.8  0 73  Z " stroke-width="4" stroke-dasharray="2,2" stroke="rgba(121, 121, 121, 1)" fill="none" transform="matrix(1 0 0 1 478 1121 )" class="stroke" mask="url(#Clip326)" />
  </g>
</svg>