<?xml version="1.0" encoding="utf-8"?>
<svg version="1.1" xmlns:xlink="http://www.w3.org/1999/xlink" width="122px" height="78px" xmlns="http://www.w3.org/2000/svg">
  <defs>
    <pattern id="BGPattern" patternUnits="userSpaceOnUse" alignment="0 0" imageRepeat="None" />
    <mask fill="white" id="Clip860">
      <path d="M 0 73  L 0 5  C 0 2.1999999999999993  2.1999999999999997 0  5 0  L 117 0  C 119.8 0  122 2.1999999999999993  122 5  L 122 73  C 122 75.8  119.8 78  117 78  L 5 78  C 2.1999999999999997 78  0 75.8  0 73  Z " fill-rule="evenodd" />
    </mask>
  </defs>
  <g transform="matrix(1 0 0 1 -1009 -1120 )">
    <path d="M 0 73  L 0 5  C 0 2.1999999999999993  2.1999999999999997 0  5 0  L 117 0  C 119.8 0  122 2.1999999999999993  122 5  L 122 73  C 122 75.8  119.8 78  117 78  L 5 78  C 2.1999999999999997 78  0 75.8  0 73  Z " fill-rule="nonzero" fill="rgba(255, 255, 255, 1)" stroke="none" transform="matrix(1 0 0 1 1009 1120 )" class="fill" />
    <path d="M 0 73  L 0 5  C 0 2.1999999999999993  2.1999999999999997 0  5 0  L 117 0  C 119.8 0  122 2.1999999999999993  122 5  L 122 73  C 122 75.8  119.8 78  117 78  L 5 78  C 2.1999999999999997 78  0 75.8  0 73  Z " stroke-width="4" stroke-dasharray="2,2" stroke="rgba(121, 121, 121, 1)" fill="none" transform="matrix(1 0 0 1 1009 1120 )" class="stroke" mask="url(#Clip860)" />
  </g>
</svg>