<?xml version="1.0" encoding="utf-8"?>
<svg version="1.1" xmlns:xlink="http://www.w3.org/1999/xlink" width="68px" height="69px" xmlns="http://www.w3.org/2000/svg">
  <defs>
    <pattern id="BGPattern" patternUnits="userSpaceOnUse" alignment="0 0" imageRepeat="None" />
    <mask fill="white" id="Clip1880">
      <path d="M 0 34.5  C 0 15.179999999999998  14.959999999999997 0  34 0  C 53.04 0  68 15.179999999999998  68 34.5  C 68 53.82  53.04 69  34 69  C 14.959999999999997 69  0 53.82  0 34.5  Z " fill-rule="evenodd" />
    </mask>
  </defs>
  <g transform="matrix(1 0 0 1 -313 -975 )">
    <path d="M 0 34.5  C 0 15.179999999999998  14.959999999999997 0  34 0  C 53.04 0  68 15.179999999999998  68 34.5  C 68 53.82  53.04 69  34 69  C 14.959999999999997 69  0 53.82  0 34.5  Z " fill-rule="nonzero" fill="rgba(255, 255, 255, 1)" stroke="none" transform="matrix(1 0 0 1 313 975 )" class="fill" />
    <path d="M 0 34.5  C 0 15.179999999999998  14.959999999999997 0  34 0  C 53.04 0  68 15.179999999999998  68 34.5  C 68 53.82  53.04 69  34 69  C 14.959999999999997 69  0 53.82  0 34.5  Z " stroke-width="2" stroke-dasharray="0" stroke="rgba(121, 121, 121, 1)" fill="none" transform="matrix(1 0 0 1 313 975 )" class="stroke" mask="url(#Clip1880)" />
  </g>
</svg>