<?xml version="1.0" encoding="utf-8"?>
<svg version="1.1" xmlns:xlink="http://www.w3.org/1999/xlink" width="55px" height="29px" xmlns="http://www.w3.org/2000/svg">
  <defs>
    <pattern id="BGPattern" patternUnits="userSpaceOnUse" alignment="0 0" imageRepeat="None" />
    <mask fill="white" id="Clip1243">
      <path d="M 55 29  L 0 29  C 0 12.759999999999998  12.099999999999998 0  27.5 0  C 42.9 0  55 12.759999999999998  55 29  Z " fill-rule="evenodd" />
    </mask>
  </defs>
  <g transform="matrix(1 0 0 1 -857 -3054 )">
    <path d="M 55 29  L 0 29  C 0 12.759999999999998  12.099999999999998 0  27.5 0  C 42.9 0  55 12.759999999999998  55 29  Z " fill-rule="nonzero" fill="rgba(65, 65, 65, 1)" stroke="none" transform="matrix(1 0 0 1 857 3054 )" class="fill" />
    <path d="M 55 29  L 0 29  C 0 12.759999999999998  12.099999999999998 0  27.5 0  C 42.9 0  55 12.759999999999998  55 29  Z " stroke-width="2" stroke-dasharray="0" stroke="rgba(121, 121, 121, 0)" fill="none" transform="matrix(1 0 0 1 857 3054 )" class="stroke" mask="url(#Clip1243)" />
  </g>
</svg>