<?xml version="1.0" encoding="utf-8"?>
<svg version="1.1" xmlns:xlink="http://www.w3.org/1999/xlink" width="385px" height="38px" xmlns="http://www.w3.org/2000/svg">
  <defs>
    <pattern id="BGPattern" patternUnits="userSpaceOnUse" alignment="0 0" imageRepeat="None" />
    <mask fill="white" id="Clip1000">
      <path d="M 0 38  L 0 0  L 385 0  L 385 38  L 0 38  Z " fill-rule="evenodd" />
    </mask>
    <mask fill="white" id="Clip1001">
      <path d="M 170 11  L 217 11  L 217 30  L 170 30  Z M 0 0  L 385 0  L 385 38  L 0 38  Z " fill-rule="evenodd" />
    </mask>
  </defs>
  <g transform="matrix(1 0 0 1 -69 -321 )">
    <path d="M 0 38  L 0 0  L 385 0  L 385 38  L 0 38  Z " fill-rule="nonzero" fill="rgba(242, 242, 242, 1)" stroke="none" transform="matrix(1 0 0 1 69 321 )" class="fill" />
    <path d="M 0 38  L 0 0  L 385 0  L 385 38  L 0 38  Z " stroke-width="2" stroke-dasharray="0" stroke="rgba(121, 121, 121, 1)" fill="none" transform="matrix(1 0 0 1 69 321 )" class="stroke" mask="url(#Clip1000)" />
    <path d="M 379.95870701299634 0.4975821649510118  L 5.041292987003673 37.50241783504899  M 5.041292987003673 0.4975821649510118  L 379.95870701299634 37.50241783504899  " stroke-width="1" stroke-dasharray="0" stroke="rgba(121, 121, 121, 1)" fill="none" transform="matrix(1 0 0 1 69 321 )" class="stroke" mask="url(#Clip1001)" />
  </g>
</svg>