<?xml version="1.0" encoding="utf-8"?>
<svg version="1.1" xmlns:xlink="http://www.w3.org/1999/xlink" width="187px" height="112px" xmlns="http://www.w3.org/2000/svg">
  <defs>
    <pattern id="BGPattern" patternUnits="userSpaceOnUse" alignment="0 0" imageRepeat="None" />
    <mask fill="white" id="Clip2894">
      <path d="M 0 112  L 0 0  L 187 0  L 187 112  L 0 112  Z " fill-rule="evenodd" />
    </mask>
    <mask fill="white" id="Clip2895">
      <path d="M 80 47  L 109 47  L 109 66  L 80 66  Z M 0 0  L 187 0  L 187 112  L 0 112  Z " fill-rule="evenodd" />
    </mask>
  </defs>
  <g transform="matrix(1 0 0 1 -765 -253 )">
    <path d="M 0 112  L 0 0  L 187 0  L 187 112  L 0 112  Z " fill-rule="nonzero" fill="rgba(242, 242, 242, 1)" stroke="none" transform="matrix(1 0 0 1 765 253 )" class="fill" />
    <path d="M 0 112  L 0 0  L 187 0  L 187 112  L 0 112  Z " stroke-width="2" stroke-dasharray="0" stroke="rgba(121, 121, 121, 1)" fill="none" transform="matrix(1 0 0 1 765 253 )" class="stroke" mask="url(#Clip2894)" />
    <path d="M 186.2838088200363 0.42894872810659285  L 0.7161911799636863 111.57105127189341  M 0.7161911799636863 0.42894872810659285  L 186.2838088200363 111.57105127189341  " stroke-width="1" stroke-dasharray="0" stroke="rgba(121, 121, 121, 1)" fill="none" transform="matrix(1 0 0 1 765 253 )" class="stroke" mask="url(#Clip2895)" />
  </g>
</svg>