<?xml version="1.0" encoding="utf-8"?>
<svg version="1.1" xmlns:xlink="http://www.w3.org/1999/xlink" width="15px" height="16px" xmlns="http://www.w3.org/2000/svg">
  <defs>
    <pattern id="BGPattern" patternUnits="userSpaceOnUse" alignment="0 0" imageRepeat="None" />
    <mask fill="white" id="Clip854">
      <path d="M 0 8  C 0 3.5199999999999996  3.3 0  7.5 0  C 11.700000000000001 0  15 3.5199999999999996  15 8  C 15 12.48  11.700000000000001 16  7.5 16  C 3.3 16  0 12.48  0 8  Z " fill-rule="evenodd" />
    </mask>
  </defs>
  <g transform="matrix(1 0 0 1 -315 -2687 )">
    <path d="M 0 8  C 0 3.5199999999999996  3.3 0  7.5 0  C 11.700000000000001 0  15 3.5199999999999996  15 8  C 15 12.48  11.700000000000001 16  7.5 16  C 3.3 16  0 12.48  0 8  Z " fill-rule="nonzero" fill="rgba(255, 255, 255, 1)" stroke="none" transform="matrix(1 0 0 1 315 2687 )" class="fill" />
    <path d="M 0 8  C 0 3.5199999999999996  3.3 0  7.5 0  C 11.700000000000001 0  15 3.5199999999999996  15 8  C 15 12.48  11.700000000000001 16  7.5 16  C 3.3 16  0 12.48  0 8  Z " stroke-width="2" stroke-dasharray="0" stroke="rgba(121, 121, 121, 0)" fill="none" transform="matrix(1 0 0 1 315 2687 )" class="stroke" mask="url(#Clip854)" />
  </g>
</svg>