<?xml version="1.0" encoding="utf-8"?>
<svg version="1.1" xmlns:xlink="http://www.w3.org/1999/xlink" width="70px" height="70px" xmlns="http://www.w3.org/2000/svg">
  <g transform="matrix(1 0 0 1 -326 -422 )">
    <path d="M 326 422  L 396 422  L 396 492  L 326 492  L 326 422  " fill-rule="nonzero" fill="rgba(204, 204, 204, 1)" stroke="none" class="fill" />
    <path d="M 331 427  L 391 427  L 391 487  L 331 487  L 331 427  " fill-rule="nonzero" fill="rgba(255, 255, 255, 1)" stroke="none" class="fill" />
    <path d="M 367.65 443  C 364.71 443  362.4 440.69  362.4 437.75  C 362.4 434.81  364.71 432.5  367.65 432.5  C 370.59 432.5  372.9 434.81  372.9 437.75  C 372.9 440.69  370.59 443  367.65 443  " fill-rule="nonzero" fill="rgba(204, 204, 204, 1)" stroke="none" class="fill" />
    <path d="M 333 485  L 333 454.2  L 347 440.2  L 366.6 451.4  L 377.8 448.6  L 389 451.4  L 389 485  L 333 485  " fill-rule="nonzero" fill="rgba(22, 155, 213, 1)" stroke="none" class="fill" />
  </g>
</svg>