<?xml version="1.0" encoding="utf-8"?>
<svg version="1.1" xmlns:xlink="http://www.w3.org/1999/xlink" width="51px" height="44px" xmlns="http://www.w3.org/2000/svg">
  <defs>
    <pattern id="BGPattern" patternUnits="userSpaceOnUse" alignment="0 0" imageRepeat="None" />
    <mask fill="white" id="Clip1163">
      <path d="M 0 44  L 0 0  L 51 0  L 51 44  L 0 44  Z " fill-rule="evenodd" />
    </mask>
    <mask fill="white" id="Clip1164">
      <path d="M 19 13  L 34 13  L 34 32  L 19 32  Z M 0 0  L 51 0  L 51 44  L 0 44  Z " fill-rule="evenodd" />
    </mask>
  </defs>
  <g transform="matrix(1 0 0 1 -250 -531 )">
    <path d="M 0 44  L 0 0  L 51 0  L 51 44  L 0 44  Z " fill-rule="nonzero" fill="rgba(242, 242, 242, 1)" stroke="none" transform="matrix(1 0 0 1 250 531 )" class="fill" />
    <path d="M 0 44  L 0 0  L 51 0  L 51 44  L 0 44  Z " stroke-width="2" stroke-dasharray="0" stroke="rgba(121, 121, 121, 1)" fill="none" transform="matrix(1 0 0 1 250 531 )" class="stroke" mask="url(#Clip1163)" />
    <path d="M 50.561193259225696 0.37857836458959415  L 0.4388067407743023 43.62142163541041  M 0.4388067407743023 0.37857836458959415  L 50.561193259225696 43.62142163541041  " stroke-width="1" stroke-dasharray="0" stroke="rgba(121, 121, 121, 1)" fill="none" transform="matrix(1 0 0 1 250 531 )" class="stroke" mask="url(#Clip1164)" />
  </g>
</svg>