<?xml version="1.0" encoding="utf-8"?>
<svg version="1.1" xmlns:xlink="http://www.w3.org/1999/xlink" width="16px" height="16px" xmlns="http://www.w3.org/2000/svg">
  <defs>
    <pattern id="BGPattern" patternUnits="userSpaceOnUse" alignment="0 0" imageRepeat="None" />
    <mask fill="white" id="Clip1813">
      <path d="M 0 8  C 0 7.7025046295068185  0.015521977839813664 7.409242525697229  0.045816304209695416 7.120963317880998  C 0.4717259917443184 3.0680292527791293  3.8174953704931833 0  8 0  C 12.479999999999999 0  16 3.519999999999962  16 8  C 16 12.480000000000038  12.479999999999999 16  8 16  C 3.520000000000002 16  0 12.480000000000038  0 8  Z " fill-rule="evenodd" />
    </mask>
  </defs>
  <g transform="matrix(1 0 0 1 -176 -325 )">
    <path d="M 0 8  C 0 7.7025046295068185  0.015521977839813664 7.409242525697229  0.045816304209695416 7.120963317880998  C 0.4717259917443184 3.0680292527791293  3.8174953704931833 0  8 0  C 12.479999999999999 0  16 3.519999999999962  16 8  C 16 12.480000000000038  12.479999999999999 16  8 16  C 3.520000000000002 16  0 12.480000000000038  0 8  Z " fill-rule="nonzero" fill="rgba(255, 255, 255, 1)" stroke="none" transform="matrix(1 0 0 1 176 325 )" class="fill" />
    <path d="M 0 8  C 0 7.7025046295068185  0.015521977839813664 7.409242525697229  0.045816304209695416 7.120963317880998  C 0.4717259917443184 3.0680292527791293  3.8174953704931833 0  8 0  C 12.479999999999999 0  16 3.519999999999962  16 8  C 16 12.480000000000038  12.479999999999999 16  8 16  C 3.520000000000002 16  0 12.480000000000038  0 8  Z " stroke-width="2" stroke-dasharray="0" stroke="rgba(121, 121, 121, 1)" fill="none" transform="matrix(1 0 0 1 176 325 )" class="stroke" mask="url(#Clip1813)" />
  </g>
</svg>