<?xml version="1.0" encoding="utf-8"?>
<svg version="1.1" xmlns:xlink="http://www.w3.org/1999/xlink" width="118px" height="34px" xmlns="http://www.w3.org/2000/svg">
  <defs>
    <pattern id="BGPattern" patternUnits="userSpaceOnUse" alignment="0 0" imageRepeat="None" />
    <mask fill="white" id="Clip1695">
      <path d="M 0 17  C 0 7.479999999999999  25.959999999999997 0  59 0  C 92.04 0  118 7.479999999999999  118 17  C 118 26.52  92.04 34  59 34  C 25.959999999999997 34  0 26.52  0 17  Z " fill-rule="evenodd" />
    </mask>
  </defs>
  <g transform="matrix(1 0 0 1 -962 -607 )">
    <path d="M 0 17  C 0 7.479999999999999  25.959999999999997 0  59 0  C 92.04 0  118 7.479999999999999  118 17  C 118 26.52  92.04 34  59 34  C 25.959999999999997 34  0 26.52  0 17  Z " fill-rule="nonzero" fill="rgba(225, 9, 9, 1)" stroke="none" transform="matrix(1 0 0 1 962 607 )" class="fill" />
    <path d="M 0 17  C 0 7.479999999999999  25.959999999999997 0  59 0  C 92.04 0  118 7.479999999999999  118 17  C 118 26.52  92.04 34  59 34  C 25.959999999999997 34  0 26.52  0 17  Z " stroke-width="2" stroke-dasharray="0" stroke="rgba(121, 121, 121, 1)" fill="none" transform="matrix(1 0 0 1 962 607 )" class="stroke" mask="url(#Clip1695)" />
  </g>
</svg>