<?xml version="1.0" encoding="utf-8"?>
<svg version="1.1" xmlns:xlink="http://www.w3.org/1999/xlink" width="183px" height="34px" xmlns="http://www.w3.org/2000/svg">
  <defs>
    <pattern id="BGPattern" patternUnits="userSpaceOnUse" alignment="0 0" imageRepeat="None" />
    <mask fill="white" id="Clip3020">
      <path d="M 0 17  C 0 7.479999999999999  40.26 0  91.5 0  C 142.74 0  183 7.479999999999999  183 17  C 183 26.52  142.74 34  91.5 34  C 40.26 34  0 26.52  0 17  Z " fill-rule="evenodd" />
    </mask>
  </defs>
  <g transform="matrix(1 0 0 1 -795 -640 )">
    <path d="M 0 17  C 0 7.479999999999999  40.26 0  91.5 0  C 142.74 0  183 7.479999999999999  183 17  C 183 26.52  142.74 34  91.5 34  C 40.26 34  0 26.52  0 17  Z " fill-rule="nonzero" fill="rgba(225, 9, 9, 1)" stroke="none" transform="matrix(1 0 0 1 795 640 )" class="fill" />
    <path d="M 0 17  C 0 7.479999999999999  40.26 0  91.5 0  C 142.74 0  183 7.479999999999999  183 17  C 183 26.52  142.74 34  91.5 34  C 40.26 34  0 26.52  0 17  Z " stroke-width="2" stroke-dasharray="0" stroke="rgba(121, 121, 121, 1)" fill="none" transform="matrix(1 0 0 1 795 640 )" class="stroke" mask="url(#Clip3020)" />
  </g>
</svg>