<?xml version="1.0" encoding="utf-8"?>
<svg version="1.1" xmlns:xlink="http://www.w3.org/1999/xlink" width="56px" height="34px" xmlns="http://www.w3.org/2000/svg">
  <defs>
    <pattern id="BGPattern" patternUnits="userSpaceOnUse" alignment="0 0" imageRepeat="None" />
    <mask fill="white" id="Clip2358">
      <path d="M 0 17  C 0 7.479999999999999  12.319999999999999 0  28 0  C 43.68 0  56 7.479999999999999  56 17  C 56 26.52  43.68 34  28 34  C 12.319999999999999 34  0 26.52  0 17  Z " fill-rule="evenodd" />
    </mask>
  </defs>
  <g transform="matrix(1 0 0 1 -854 -597 )">
    <path d="M 0 17  C 0 7.479999999999999  12.319999999999999 0  28 0  C 43.68 0  56 7.479999999999999  56 17  C 56 26.52  43.68 34  28 34  C 12.319999999999999 34  0 26.52  0 17  Z " fill-rule="nonzero" fill="rgba(225, 9, 9, 1)" stroke="none" transform="matrix(1 0 0 1 854 597 )" class="fill" />
    <path d="M 0 17  C 0 7.479999999999999  12.319999999999999 0  28 0  C 43.68 0  56 7.479999999999999  56 17  C 56 26.52  43.68 34  28 34  C 12.319999999999999 34  0 26.52  0 17  Z " stroke-width="2" stroke-dasharray="0" stroke="rgba(121, 121, 121, 1)" fill="none" transform="matrix(1 0 0 1 854 597 )" class="stroke" mask="url(#Clip2358)" />
  </g>
</svg>