<?xml version="1.0" encoding="utf-8"?>
<svg version="1.1" xmlns:xlink="http://www.w3.org/1999/xlink" width="124px" height="34px" xmlns="http://www.w3.org/2000/svg">
  <defs>
    <pattern id="BGPattern" patternUnits="userSpaceOnUse" alignment="0 0" imageRepeat="None" />
    <mask fill="white" id="Clip770">
      <path d="M 0 17  C 0 7.479999999999999  27.279999999999998 0  62 0  C 96.72 0  124 7.479999999999999  124 17  C 124 26.52  96.72 34  62 34  C 27.279999999999998 34  0 26.52  0 17  Z " fill-rule="evenodd" />
    </mask>
  </defs>
  <g transform="matrix(1 0 0 1 -795 -560 )">
    <path d="M 0 17  C 0 7.479999999999999  27.279999999999998 0  62 0  C 96.72 0  124 7.479999999999999  124 17  C 124 26.52  96.72 34  62 34  C 27.279999999999998 34  0 26.52  0 17  Z " fill-rule="nonzero" fill="rgba(225, 9, 9, 1)" stroke="none" transform="matrix(1 0 0 1 795 560 )" class="fill" />
    <path d="M 0 17  C 0 7.479999999999999  27.279999999999998 0  62 0  C 96.72 0  124 7.479999999999999  124 17  C 124 26.52  96.72 34  62 34  C 27.279999999999998 34  0 26.52  0 17  Z " stroke-width="2" stroke-dasharray="0" stroke="rgba(121, 121, 121, 1)" fill="none" transform="matrix(1 0 0 1 795 560 )" class="stroke" mask="url(#Clip770)" />
  </g>
</svg>