<?xml version="1.0" encoding="utf-8"?>
<svg version="1.1" xmlns:xlink="http://www.w3.org/1999/xlink" width="47px" height="48px" xmlns="http://www.w3.org/2000/svg">
  <defs>
    <pattern id="BGPattern" patternUnits="userSpaceOnUse" alignment="0 0" imageRepeat="None" />
    <mask fill="white" id="Clip1110">
      <path d="M 0 24  C 0 10.559999999999999  10.339999999999998 0  23.5 0  C 36.660000000000004 0  47 10.559999999999999  47 24  C 47 37.44  36.660000000000004 48  23.5 48  C 10.339999999999998 48  0 37.44  0 24  Z " fill-rule="evenodd" />
    </mask>
  </defs>
  <g transform="matrix(1 0 0 1 -170 -4774 )">
    <path d="M 0 24  C 0 10.559999999999999  10.339999999999998 0  23.5 0  C 36.660000000000004 0  47 10.559999999999999  47 24  C 47 37.44  36.660000000000004 48  23.5 48  C 10.339999999999998 48  0 37.44  0 24  Z " fill-rule="nonzero" fill="rgba(255, 255, 255, 1)" stroke="none" transform="matrix(1 0 0 1 170 4774 )" class="fill" />
    <path d="M 0 24  C 0 10.559999999999999  10.339999999999998 0  23.5 0  C 36.660000000000004 0  47 10.559999999999999  47 24  C 47 37.44  36.660000000000004 48  23.5 48  C 10.339999999999998 48  0 37.44  0 24  Z " stroke-width="2" stroke-dasharray="0" stroke="rgba(121, 121, 121, 1)" fill="none" transform="matrix(1 0 0 1 170 4774 )" class="stroke" mask="url(#Clip1110)" />
  </g>
</svg>