<?xml version="1.0" encoding="utf-8"?>
<svg version="1.1" xmlns:xlink="http://www.w3.org/1999/xlink" width="44px" height="41px" xmlns="http://www.w3.org/2000/svg">
  <g transform="matrix(1 0 0 1 -157 -389 )">
    <path d="M 157 389  L 201 389  L 201 430  L 157 430  L 157 389  " fill-rule="nonzero" fill="rgba(204, 204, 204, 1)" stroke="none" class="fill" />
    <path d="M 160 392  L 198 392  L 198 427  L 160 427  L 160 392  " fill-rule="nonzero" fill="rgba(255, 255, 255, 1)" stroke="none" class="fill" />
    <path d="M 182.95499999999998 401.29999999999995  C 181.233 401.29999999999995  179.88 399.94699999999995  179.88 398.22499999999997  C 179.88 396.503  181.233 395.15  182.95499999999998 395.15  C 184.677 395.15  186.03 396.503  186.03 398.22499999999997  C 186.03 399.94699999999995  184.677 401.29999999999995  182.95499999999998 401.29999999999995  " fill-rule="nonzero" fill="rgba(204, 204, 204, 1)" stroke="none" class="fill" />
    <path d="M 161 426  L 161 407.85  L 170 399.6  L 182.6 407.55  L 189.8 404.55  L 197 407.55  L 197 426  L 161 426  " fill-rule="nonzero" fill="rgba(22, 155, 213, 1)" stroke="none" class="fill" />
  </g>
</svg>