<?xml version="1.0" encoding="utf-8"?>
<svg version="1.1" xmlns:xlink="http://www.w3.org/1999/xlink" width="89px" height="41px" xmlns="http://www.w3.org/2000/svg">
  <g transform="matrix(1 0 0 1 -381 -525 )">
    <path d="M 381 525  L 470 525  L 470 566  L 381 566  L 381 525  " fill-rule="nonzero" fill="rgba(204, 204, 204, 1)" stroke="none" class="fill" />
    <path d="M 384 528  L 467 528  L 467 563  L 384 563  L 384 528  " fill-rule="nonzero" fill="rgba(255, 255, 255, 1)" stroke="none" class="fill" />
    <path d="M 430.35499999999996 537.3  C 428.633 537.3  427.28 535.9469999999999  427.28 534.2249999999999  C 427.28 532.5029999999999  428.633 531.15  430.35499999999996 531.15  C 432.07699999999994 531.15  433.42999999999995 532.5029999999999  433.42999999999995 534.2249999999999  C 433.42999999999995 535.9469999999999  432.07699999999994 537.3  430.35499999999996 537.3  " fill-rule="nonzero" fill="rgba(204, 204, 204, 1)" stroke="none" class="fill" />
    <path d="M 385 562  L 385 543.85  L 405.25 535.6  L 433.6 552.8786516853933  L 449.8 540.55  L 466 552.8786516853933  L 466 562  L 385 562  " fill-rule="nonzero" fill="rgba(22, 155, 213, 1)" stroke="none" class="fill" />
  </g>
</svg>