<?xml version="1.0" encoding="utf-8"?>
<svg version="1.1" xmlns:xlink="http://www.w3.org/1999/xlink" width="395px" height="46px" xmlns="http://www.w3.org/2000/svg">
  <defs>
    <pattern id="BGPattern" patternUnits="userSpaceOnUse" alignment="0 0" imageRepeat="None" />
    <mask fill="white" id="Clip261">
      <path d="M 0 46  L 0 0  L 395 0  L 395 46  L 0 46  Z " fill-rule="evenodd" />
    </mask>
    <mask fill="white" id="Clip262">
      <path d="M 148.5 15  L 248.5 15  L 248.5 34  L 148.5 34  Z M 0 0  L 395 0  L 395 46  L 0 46  Z " fill-rule="evenodd" />
    </mask>
  </defs>
  <g transform="matrix(1 0 0 1 -88 -1340 )">
    <path d="M 0 46  L 0 0  L 395 0  L 395 46  L 0 46  Z " fill-rule="nonzero" fill="rgba(242, 242, 242, 1)" stroke="none" transform="matrix(1 0 0 1 88 1340 )" class="fill" />
    <path d="M 0 46  L 0 0  L 395 0  L 395 46  L 0 46  Z " stroke-width="2" stroke-dasharray="0" stroke="rgba(121, 121, 121, 1)" fill="none" transform="matrix(1 0 0 1 88 1340 )" class="stroke" mask="url(#Clip261)" />
    <path d="M 390.7353428399663 0.49664361863683804  L 4.2646571600337175 45.50335638136316  M 4.2646571600337175 0.49664361863683804  L 390.7353428399663 45.50335638136316  " stroke-width="1" stroke-dasharray="0" stroke="rgba(121, 121, 121, 1)" fill="none" transform="matrix(1 0 0 1 88 1340 )" class="stroke" mask="url(#Clip262)" />
  </g>
</svg>