<?xml version="1.0" encoding="utf-8"?>
<svg version="1.1" xmlns:xlink="http://www.w3.org/1999/xlink" width="136px" height="121px" xmlns="http://www.w3.org/2000/svg">
  <g transform="matrix(1 0 0 1 -982 -2563 )">
    <path d="M 982 2563  L 1118 2563  L 1118 2684  L 982 2684  L 982 2563  " fill-rule="nonzero" fill="rgba(204, 204, 204, 1)" stroke="none" class="fill" />
    <path d="M 990 2571  L 1110 2571  L 1110 2676  L 990 2676  L 990 2571  " fill-rule="nonzero" fill="rgba(255, 255, 255, 1)" stroke="none" class="fill" />
    <path d="M 1061.795 2599.3  C 1056.713 2599.3  1052.72 2595.3070000000002  1052.72 2590.2250000000004  C 1052.72 2585.143  1056.713 2581.15  1061.795 2581.15  C 1066.8770000000002 2581.15  1070.8700000000001 2585.143  1070.8700000000001 2590.2250000000004  C 1070.8700000000001 2595.3070000000002  1066.8770000000002 2599.3  1061.795 2599.3  " fill-rule="nonzero" fill="rgba(204, 204, 204, 1)" stroke="none" class="fill" />
    <path d="M 993 2673  L 993 2618.55  L 1021.5 2593.8  L 1061.4 2620.1514705882355  L 1084.2 2608.65  L 1107 2620.1514705882355  L 1107 2673  L 993 2673  " fill-rule="nonzero" fill="rgba(22, 155, 213, 1)" stroke="none" class="fill" />
  </g>
</svg>